# xmcd
#
# Track frame offsets: 
#        150
#        13810
#        28394
#        39365
#        56731
#        67369
#        82858
#        98651
#        113023
#        127683
#
# Disc length: 2065 seconds
#
# Revision: 0
# Processed by: cddbd v1.5.2PL0 Copyright (c) Steve Scherf et al.
# Submitted via: ExactAudioCopy v0.99pb3
#
DISCID=7d080f0a
DTITLE=John Hughey - Gospel Favorites
DYEAR=2003
DGENRE=Instrumental
TTITLE0=It Is No Secret
TTITLE1=Peace In The Valley
TTITLE2=Lily Of The Valley
TTITLE3=There Is A River
TTITLE4=Leaning On The Everlasting Arms
TTITLE5=When He Was On The Cross (I Was On His Mind)
TTITLE6=Family Bible
TTITLE7=Where We'll Never Grow Old
TTITLE8=Beyond The Sunset
TTITLE9=Just A Closer Walk With Thee
EXTD=
EXTT0=
EXTT1=
EXTT2=
EXTT3=
EXTT4=
EXTT5=
EXTT6=
EXTT7=
EXTT8=
EXTT9=
PLAYORDER=
